HIERARCHY
ROOT Hips
{
	OFFSET 0.000000 121.760803 0.000000
	CHANNELS 6 Xposition Yposition Zposition Xrotation Yrotation Zrotation 
	JOINT Spine
	{
		OFFSET 0.072000 7.257294 -0.789700
		CHANNELS 3 Xrotation Yrotation Zrotation
		JOINT Spine1
		{
			OFFSET 0.000000 12.508769 -0.658067
			CHANNELS 3 Xrotation Yrotation Zrotation
			JOINT Spine1_split
			{
				OFFSET 0.000000 12.508769 -0.658067
				CHANNELS 3 Xrotation Yrotation Zrotation
				JOINT Spine2
				{
					OFFSET 0.000000 12.508769 -0.658067
					CHANNELS 3 Xrotation Yrotation Zrotation
					JOINT Neck
					{
						OFFSET 0.000000 14.033295 7.520400
						CHANNELS 3 Xrotation Yrotation Zrotation
						JOINT Head
						{
							OFFSET 0.000000 8.198502 5.703100
							CHANNELS 3 Xrotation Yrotation Zrotation
							JOINT HeadTop_End
							{
								OFFSET 0.000000 17.760803 13.332701
								CHANNELS 3 Xrotation Yrotation Zrotation
								End Site
								{
									OFFSET 0.000000 0.000000 0.000000
								}
							}
						}
					}
					JOINT LeftShoulder
					{
						OFFSET 6.292450 5.785301 -0.669000
						CHANNELS 3 Xrotation Yrotation Zrotation
						JOINT LeftShoulder_split
						{
							OFFSET 6.292450 5.785301 -0.669000
							CHANNELS 3 Xrotation Yrotation Zrotation
							JOINT LeftArm
							{
								OFFSET 13.907140 -6.093903 1.965100
								CHANNELS 3 Xrotation Yrotation Zrotation
								JOINT LeftForeArm
								{
									OFFSET 34.140198 0.000000 0.000000
									CHANNELS 3 Xrotation Yrotation Zrotation
									JOINT LeftHand
									{
										OFFSET 40.960209 0.000000 0.000000
										CHANNELS 3 Xrotation Yrotation Zrotation
										JOINT LeftHandThumb1
										{
											OFFSET 10.006996 -7.170425 9.573125
											CHANNELS 3 Xrotation Yrotation Zrotation
											JOINT LeftHandThumb2
											{
												OFFSET 1.835007 -1.059448 1.059443
												CHANNELS 3 Xrotation Yrotation Zrotation
												JOINT LeftHandThumb3
												{
													OFFSET 2.112267 -1.219513 1.219518
													CHANNELS 3 Xrotation Yrotation Zrotation
													JOINT LeftHandThumb4
													{
														OFFSET 4.843811 -2.796570 2.796576
														CHANNELS 3 Xrotation Yrotation Zrotation
														End Site
														{
															OFFSET 0.000000 0.000000 0.000000
														}
													}
												}
											}
										}
										JOINT LeftHandIndex1
										{
											OFFSET 18.389847 -0.922348 4.596882
											CHANNELS 3 Xrotation Yrotation Zrotation
											JOINT LeftHandIndex2
											{
												OFFSET 4.711273 0.000000 0.000000
												CHANNELS 3 Xrotation Yrotation Zrotation
												JOINT LeftHandIndex3
												{
													OFFSET 2.886131 0.000000 0.000000
													CHANNELS 3 Xrotation Yrotation Zrotation
													JOINT LeftHandIndex4
													{
														OFFSET 6.145912 0.000000 0.000000
														CHANNELS 3 Xrotation Yrotation Zrotation
														End Site
														{
															OFFSET 0.000000 0.000000 0.000000
														}
													}
												}
											}
										}
										JOINT LeftHandMiddle1
										{
											OFFSET 18.013008 0.000000 0.000000
											CHANNELS 3 Xrotation Yrotation Zrotation
											JOINT LeftHandMiddle2
											{
												OFFSET 4.946693 0.000000 0.000000
												CHANNELS 3 Xrotation Yrotation Zrotation
												JOINT LeftHandMiddle3
												{
													OFFSET 3.342232 0.000000 0.000000
													CHANNELS 3 Xrotation Yrotation Zrotation
													JOINT LeftHandMiddle4
													{
														OFFSET 4.461754 0.000000 0.000000
														CHANNELS 3 Xrotation Yrotation Zrotation
														End Site
														{
															OFFSET 0.000000 0.000000 0.000000
														}
													}
												}
											}
										}
										JOINT LeftHandRing1
										{
											OFFSET 15.849892 -0.102921 -4.126150
											CHANNELS 3 Xrotation Yrotation Zrotation
											JOINT LeftHandRing2
											{
												OFFSET 3.527054 0.000000 0.000000
												CHANNELS 3 Xrotation Yrotation Zrotation
												JOINT LeftHandRing3
												{
													OFFSET 2.961098 0.000000 0.000000
													CHANNELS 3 Xrotation Yrotation Zrotation
													JOINT LeftHandRing4
													{
														OFFSET 4.927200 0.000000 0.000000
														CHANNELS 3 Xrotation Yrotation Zrotation
														End Site
														{
															OFFSET 0.000000 0.000000 0.000000
														}
													}
												}
											}
										}
										JOINT LeftHandPinky1
										{
											OFFSET 12.791824 -0.832031 -6.799156
											CHANNELS 3 Xrotation Yrotation Zrotation
											JOINT LeftHandPinky2
											{
												OFFSET 3.327133 0.000000 0.000000
												CHANNELS 3 Xrotation Yrotation Zrotation
												JOINT LeftHandPinky3
												{
													OFFSET 3.014900 0.000000 0.000000
													CHANNELS 3 Xrotation Yrotation Zrotation
													JOINT LeftHandPinky4
													{
														OFFSET 5.847786 0.000000 0.000000
														CHANNELS 3 Xrotation Yrotation Zrotation
														End Site
														{
															OFFSET 0.000000 0.000000 0.000000
														}
													}
												}
											}
										}
									}
								}
							}
						}
					}
					JOINT RightShoulder
					{
						OFFSET -6.292450 5.785301 -0.669000
						CHANNELS 3 Xrotation Yrotation Zrotation
						JOINT RightShoulder_split
						{
							OFFSET -6.292450 5.785301 -0.669000
							CHANNELS 3 Xrotation Yrotation Zrotation
							JOINT RightArm
							{
								OFFSET -13.907140 -6.093903 1.965100
								CHANNELS 3 Xrotation Yrotation Zrotation
								JOINT RightForeArm
								{
									OFFSET -34.140198 0.000000 0.000000
									CHANNELS 3 Xrotation Yrotation Zrotation
									JOINT RightHand
									{
										OFFSET -40.960209 0.000000 0.000000
										CHANNELS 3 Xrotation Yrotation Zrotation
										JOINT RightHandThumb1
										{
											OFFSET -10.007050 -7.170456 9.573117
											CHANNELS 3 Xrotation Yrotation Zrotation
											JOINT RightHandThumb2
											{
												OFFSET -1.835007 -1.059448 1.059443
												CHANNELS 3 Xrotation Yrotation Zrotation
												JOINT RightHandThumb3
												{
													OFFSET -2.112267 -1.219513 1.219518
													CHANNELS 3 Xrotation Yrotation Zrotation
													JOINT RightHandThumb4
													{
														OFFSET -4.843834 -2.796585 2.796590
														CHANNELS 3 Xrotation Yrotation Zrotation
														End Site
														{
															OFFSET 0.000000 0.000000 0.000000
														}
													}
												}
											}
										}
										JOINT RightHandIndex1
										{
											OFFSET -18.389870 -0.922424 4.596786
											CHANNELS 3 Xrotation Yrotation Zrotation
											JOINT RightHandIndex2
											{
												OFFSET -4.711273 0.000000 0.000000
												CHANNELS 3 Xrotation Yrotation Zrotation
												JOINT RightHandIndex3
												{
													OFFSET -2.886131 0.000000 0.000000
													CHANNELS 3 Xrotation Yrotation Zrotation
													JOINT RightHandIndex4
													{
														OFFSET -6.145920 0.000000 0.000000
														CHANNELS 3 Xrotation Yrotation Zrotation
														End Site
														{
															OFFSET 0.000000 0.000000 0.000000
														}
													}
												}
											}
										}
										JOINT RightHandMiddle1
										{
											OFFSET -18.013008 0.000000 0.000000
											CHANNELS 3 Xrotation Yrotation Zrotation
											JOINT RightHandMiddle2
											{
												OFFSET -4.946693 0.000000 0.000000
												CHANNELS 3 Xrotation Yrotation Zrotation
												JOINT RightHandMiddle3
												{
													OFFSET -3.342232 0.000000 0.000000
													CHANNELS 3 Xrotation Yrotation Zrotation
													JOINT RightHandMiddle4
													{
														OFFSET -4.461754 0.000000 0.000000
														CHANNELS 3 Xrotation Yrotation Zrotation
														End Site
														{
															OFFSET 0.000000 0.000000 0.000000
														}
													}
												}
											}
										}
										JOINT RightHandRing1
										{
											OFFSET -15.849876 -0.102936 -4.126237
											CHANNELS 3 Xrotation Yrotation Zrotation
											JOINT RightHandRing2
											{
												OFFSET -3.527054 0.000000 0.000000
												CHANNELS 3 Xrotation Yrotation Zrotation
												JOINT RightHandRing3
												{
													OFFSET -2.961098 0.000000 0.000000
													CHANNELS 3 Xrotation Yrotation Zrotation
													JOINT RightHandRing4
													{
														OFFSET -4.927200 0.000000 0.000000
														CHANNELS 3 Xrotation Yrotation Zrotation
														End Site
														{
															OFFSET 0.000000 0.000000 0.000000
														}
													}
												}
											}
										}
										JOINT RightHandPinky1
										{
											OFFSET -12.791786 -0.832077 -6.799222
											CHANNELS 3 Xrotation Yrotation Zrotation
											JOINT RightHandPinky2
											{
												OFFSET -3.327133 0.000000 0.000000
												CHANNELS 3 Xrotation Yrotation Zrotation
												JOINT RightHandPinky3
												{
													OFFSET -3.014900 0.000000 0.000000
													CHANNELS 3 Xrotation Yrotation Zrotation
													JOINT RightHandPinky4
													{
														OFFSET -5.847786 0.000000 0.000000
														CHANNELS 3 Xrotation Yrotation Zrotation
														End Site
														{
															OFFSET 0.000000 0.000000 0.000000
														}
													}
												}
											}
										}
									}
								}
							}
						}
					}
				}
			}
		}
	}
	JOINT LeftUpLeg
	{
		OFFSET 13.026900 -6.336304 -1.092800
		CHANNELS 3 Xrotation Yrotation Zrotation
		JOINT LeftLeg
		{
			OFFSET 0.524474 -46.096886 9.782700
			CHANNELS 3 Xrotation Yrotation Zrotation
			JOINT LeftFoot
			{
				OFFSET -0.524474 -53.427422 -12.948200
				CHANNELS 3 Xrotation Yrotation Zrotation
				JOINT LeftToeBase
				{
					OFFSET 0.192200 -14.009700 16.364100
					CHANNELS 3 Xrotation Yrotation Zrotation
					JOINT LeftToe_End
					{
						OFFSET -1.784700 -0.561700 9.474800
						CHANNELS 3 Xrotation Yrotation Zrotation
						End Site
						{
							OFFSET 0.000000 0.000000 0.000000
						}
					}
				}
			}
		}
	}
	JOINT RightUpLeg
	{
		OFFSET -12.883000 -6.336304 -1.092800
		CHANNELS 3 Xrotation Yrotation Zrotation
		JOINT RightLeg
		{
			OFFSET -0.524587 -46.096825 9.782800
			CHANNELS 3 Xrotation Yrotation Zrotation
			JOINT RightFoot
			{
				OFFSET 0.524587 -53.427383 -12.948300
				CHANNELS 3 Xrotation Yrotation Zrotation
				JOINT RightToeBase
				{
					OFFSET -0.192200 -14.009700 16.364100
					CHANNELS 3 Xrotation Yrotation Zrotation
					JOINT RightToe_End
					{
						OFFSET 1.784700 -0.561700 9.474800
						CHANNELS 3 Xrotation Yrotation Zrotation
						End Site
						{
							OFFSET 0.000000 0.000000 0.000000
						}
					}
				}
			}
		}
	}
}
MOTION
Frames: 4
Frame Time: 0.016667
4.908386 109.906288 0.271306 -63.280876 -92.801043 -64.374704 5.411872 -2.274766 -7.371634 2.771441 -0.553949 -1.077813 0.000000 0.000000 0.000000 2.777688 -0.510271 -1.087487 -12.273408 6.004530 4.761556 20.231323 76.958016 -25.708566 0.000000 -0.000001 0.000000 5.516888 -2.188420 12.208356 0.000000 0.000000 0.000000 -41.899355 5.599305 2.227376 0.045084 -12.980535 -0.290004 -49.394176 -3.550610 -0.088069 40.109941 -15.297204 -0.360447 5.639933 28.097752 11.338736 1.088503 40.896325 22.734040 0.000000 -0.000001 0.000000 6.882286 2.840008 -61.140493 8.247962 7.640038 -89.897918 2.146174 8.173407 -41.827798 -0.000004 0.000001 0.000001 -2.345526 4.688852 -62.655251 8.754177 9.897064 -87.051260 1.995362 4.929254 -37.483409 0.000000 0.000003 -0.000001 -9.042490 10.045604 -60.766185 8.524044 9.508871 -66.892899 6.576534 9.896796 -70.385099 -0.000001 -0.000000 -0.000002 -17.946786 14.755010 -51.485925 8.868354 8.666997 -84.812003 4.540445 8.852606 -59.152976 -0.000000 0.000001 -0.000004 -2.478561 1.878760 -16.638409 0.000000 0.000000 0.000000 -51.925881 54.163769 47.616613 1.362545 130.520352 0.246844 -70.593325 -0.218339 -24.603882 0.277489 -1.521506 -1.570510 7.169008 -41.689644 -15.773524 -4.517991 11.064480 4.673971 0.000000 0.000001 -0.000000 6.412838 -12.738380 14.389576 9.941760 -7.465154 101.743229 4.405022 -9.947433 61.138881 0.000001 -0.000000 -0.000001 2.653197 -11.302327 44.730926 9.916096 -9.880675 94.351181 8.462615 -8.530820 83.992230 0.000001 -0.000000 -0.000002 2.140167 -7.454459 61.765032 9.609245 -8.992503 89.388687 11.175491 -10.370851 97.638148 0.000001 -0.000001 -0.000001 -4.886661 -23.798128 68.396169 13.518274 -7.949277 112.864921 8.544487 -10.117960 85.305648 0.000000 -0.000001 0.000002 -31.061395 34.620641 35.184777 24.457417 -8.351658 0.923122 -1.749617 5.634327 -16.396856 -1.836411 -0.000604 -0.000038 0.000000 -0.000000 0.000000 -29.595630 -13.709585 -19.474522 14.776088 9.997446 -3.680587 5.733039 13.923043 18.437730 -0.001639 -0.000389 0.000000 -0.000000 -0.000000 0.000000 
4.909128 109.912117 0.271353 -63.264197 -92.795503 -64.354001 5.411827 -2.274709 -7.371433 2.771399 -0.556390 -1.077456 0.000000 0.000000 0.000000 2.777601 -0.514367 -1.086865 -12.261160 5.997532 4.760197 20.271144 76.969982 -25.754842 -0.000000 0.000000 0.000000 5.518627 -2.184565 12.217443 0.000000 0.000000 0.000000 -41.910215 5.611441 2.220992 0.057263 -13.133506 -0.286641 -49.443360 -3.460253 0.032218 40.109941 -15.297202 -0.360447 5.639938 28.097752 11.338732 1.088502 40.896328 22.734044 -0.000001 0.000001 0.000002 6.882287 2.840009 -61.140493 8.247961 7.640038 -89.897912 2.146173 8.173409 -41.827798 0.000001 -0.000002 0.000005 -2.345523 4.688853 -62.655258 8.754177 9.897064 -87.051260 1.995359 4.929256 -37.483409 -0.000004 -0.000000 -0.000002 -9.042487 10.045605 -60.766185 8.524043 9.508869 -66.892906 6.576537 9.896794 -70.385093 -0.000002 0.000002 -0.000003 -17.946786 14.755012 -51.485925 8.868354 8.666996 -84.812003 4.540442 8.852605 -59.152969 -0.000001 0.000000 -0.000002 -2.479250 1.875580 -16.638722 0.000000 0.000000 0.000000 -51.759959 54.134447 47.334218 -0.786873 130.482704 1.826173 -72.076309 -0.111481 -24.458180 0.277493 -1.521505 -1.570510 7.169009 -41.689648 -15.773521 -4.517993 11.064482 4.673974 0.000000 0.000003 0.000006 6.412839 -12.738380 14.389576 9.941760 -7.465155 101.743229 4.405015 -9.947431 61.138881 -0.000003 0.000000 -0.000000 2.653198 -11.302327 44.730929 9.916099 -9.880671 94.351175 8.462615 -8.530821 83.992230 0.000001 -0.000001 0.000002 2.140165 -7.454458 61.765032 9.609245 -8.992504 89.388687 11.175492 -10.370850 97.638148 -0.000000 0.000001 -0.000002 -4.886661 -23.798129 68.396169 13.518274 -7.949282 112.864921 8.544489 -10.117960 85.305654 0.000000 -0.000000 0.000002 -31.042984 34.626061 35.168391 24.442023 -8.348443 0.930261 -1.742854 5.634479 -16.400280 -1.700146 -0.000692 -0.000055 0.000000 0.000000 -0.000000 -29.581966 -13.709043 -19.480145 14.760423 9.996054 -3.672838 5.739830 13.922719 18.435280 0.014851 -0.000341 0.000033 0.000000 0.000000 0.000000 
4.910023 109.918732 0.272201 -63.286873 -92.788598 -64.372518 5.411815 -2.274818 -7.371220 2.771262 -0.563896 -1.076318 0.000000 0.000000 0.000000 2.777362 -0.526632 -1.085019 -12.248463 5.976468 4.762429 20.362392 77.005848 -25.853050 0.000001 0.000001 -0.000000 5.523682 -2.173154 12.243789 0.000000 0.000000 0.000000 -41.919282 5.652340 2.202117 0.064102 -13.136978 -0.284914 -49.498579 -3.474582 0.031495 40.109938 -15.297197 -0.360446 5.639943 28.097749 11.338733 1.088501 40.896328 22.734035 -0.000001 0.000001 0.000001 6.882283 2.840009 -61.140486 8.247961 7.640041 -89.897912 2.146177 8.173409 -41.827798 -0.000000 -0.000002 0.000004 -2.345526 4.688854 -62.655251 8.754181 9.897066 -87.051260 1.995356 4.929258 -37.483409 0.000000 0.000001 -0.000001 -9.042489 10.045603 -60.766185 8.524044 9.508872 -66.892906 6.576536 9.896797 -70.385093 0.000001 -0.000001 0.000001 -17.946786 14.755010 -51.485925 8.868355 8.666997 -84.812003 4.540443 8.852608 -59.152969 0.000003 -0.000001 -0.000000 -2.480388 1.866600 -16.643230 0.000000 0.000000 0.000000 -51.815803 54.140280 47.365231 -0.772602 130.490163 1.814571 -72.098425 -0.115888 -24.465700 0.277490 -1.521505 -1.570510 7.169008 -41.689648 -15.773524 -4.517993 11.064480 4.673970 -0.000001 0.000001 -0.000000 6.412837 -12.738380 14.389578 9.941759 -7.465152 101.743229 4.405018 -9.947436 61.138881 -0.000002 -0.000000 0.000000 2.653196 -11.302329 44.730929 9.916098 -9.880673 94.351181 8.462615 -8.530825 83.992230 -0.000001 -0.000002 0.000002 2.140166 -7.454460 61.765032 9.609242 -8.992507 89.388687 11.175489 -10.370850 97.638148 0.000002 -0.000001 -0.000001 -4.886661 -23.798133 68.396169 13.518275 -7.949277 112.864928 8.544491 -10.117961 85.305648 0.000000 -0.000001 0.000002 -31.024106 34.632099 35.150148 24.425252 -8.347569 0.937503 -1.735454 5.634489 -16.402295 -1.637690 -0.000724 -0.000045 0.000000 -0.000003 -0.000000 -29.565065 -13.708533 -19.486870 14.741440 9.991987 -3.665357 5.747341 13.922368 18.434387 0.014668 -0.000402 -0.000025 0.000000 0.000000 0.000000 
4.911048 109.925896 0.273989 -63.362791 -92.779944 -64.443934 5.415581 -2.274062 -7.366088 2.770428 -0.576456 -1.075721 0.000000 0.000000 0.000000 2.777962 -0.546931 -1.081945 -12.234885 5.943173 4.765604 20.501228 77.063672 -25.999352 -0.000000 0.000001 -0.000000 5.535941 -2.153905 12.285027 0.000000 0.000000 0.000000 -41.932051 5.710406 2.170939 0.070667 -13.142519 -0.283209 -49.551882 -3.487773 0.031474 40.109941 -15.297201 -0.360447 5.639936 28.097752 11.338733 1.088503 40.896325 22.734044 0.000000 0.000002 0.000001 6.882286 2.840009 -61.140493 8.247967 7.640040 -89.897912 2.146178 8.173406 -41.827798 -0.000001 -0.000000 0.000001 -2.345525 4.688854 -62.655258 8.754176 9.897064 -87.051266 1.995359 4.929256 -37.483409 0.000000 -0.000001 -0.000001 -9.042487 10.045603 -60.766185 8.524042 9.508871 -66.892906 6.576536 9.896793 -70.385093 0.000002 -0.000001 0.000003 -17.946783 14.755012 -51.485925 8.868354 8.666997 -84.812003 4.540443 8.852606 -59.152969 0.000000 0.000001 -0.000006 -2.482175 1.852242 -16.650714 0.000000 0.000000 0.000000 -51.874850 54.138723 47.397230 -0.753177 130.499193 1.799636 -72.124120 -0.115269 -24.456498 0.277489 -1.521505 -1.570509 7.169013 -41.689648 -15.773526 -4.517991 11.064477 4.673968 -0.000000 -0.000004 0.000000 6.412834 -12.738377 14.389578 9.941763 -7.465154 101.743229 4.405017 -9.947438 61.138881 -0.000004 -0.000000 0.000000 2.653195 -11.302328 44.730929 9.916097 -9.880670 94.351188 8.462612 -8.530822 83.992230 0.000001 -0.000001 0.000000 2.140165 -7.454459 61.765032 9.609245 -8.992506 89.388694 11.175487 -10.370848 97.638155 0.000002 -0.000000 -0.000000 -4.886663 -23.798131 68.396169 13.518272 -7.949277 112.864928 8.544486 -10.117961 85.305654 0.000000 0.000001 0.000001 -31.006238 34.639014 35.131054 24.408323 -8.350036 0.944685 -1.727913 5.634155 -16.402411 -1.669470 -0.000680 -0.000013 -0.000000 -0.000003 -0.000000 -29.545315 -13.707683 -19.494791 14.720034 9.984770 -3.658322 5.754974 13.921847 18.435135 0.013686 -0.000354 -0.000068 0.000000 0.000000 0.000000 
